<svg xmlns="http://www.w3.org/2000/svg" width="21.388" height="21.24" viewBox="0 0 21.388 21.24">
  <g id="Group_40" data-name="Group 40" transform="translate(-379 -160)">
    <path id="ic_error_24px" d="M12.694,2A10.62,10.62,0,1,0,23.388,12.62,10.661,10.661,0,0,0,12.694,2Zm1.069,15.93h0v0Zm0-10.62H11.625v0Z" transform="translate(377 158)" fill="#707070"/>
    <g id="Protection_Icon" data-name="Protection Icon" transform="translate(382.806 162.975)">
      <path id="ic_verified_user_24px" d="M9.791,1,3,3.762V7.9a8.74,8.74,0,0,0,6.791,8.285A8.74,8.74,0,0,0,16.582,7.9V3.762ZM8.282,12.047,5.264,9.285l3.018,2.762h0l6.037-5.523Z" transform="translate(-3 -1)" fill="#fff"/>
      <path id="ic_error_24px-2" data-name="ic_error_24px" d="M22.147,11.929Zm-9.121,4.929H11V14.886h2.027Zm0-3.943H11V7h2.027Z" transform="translate(-5.418 -4.334)" fill="#707070"/>
    </g>
  </g>
</svg>
