<svg xmlns="http://www.w3.org/2000/svg" width="61.108" height="61.952" viewBox="0 0 61.108 61.952">
  <g id="Group_39" data-name="Group 39" transform="translate(-302.892 -729.67)">
    <path id="ic_info_24px" d="M32.554,2A30.778,30.778,0,0,0,2,32.976,30.778,30.778,0,0,0,32.554,63.952,30.778,30.778,0,0,0,63.108,32.976,30.778,30.778,0,0,0,32.554,2Zm3.055,46.464H29.5v.892Zm0-24.781v-6.2h0Z" transform="translate(300.892 727.67)" fill="#707070"/>
    <path id="ic_favorite_24px" d="M18.848,35.551,16.4,33.209C7.728,24.925,2,19.462,2,12.756A9.428,9.428,0,0,1,11.266,3a9.891,9.891,0,0,1,7.581,3.707A9.891,9.891,0,0,1,26.429,3,9.428,9.428,0,0,1,35.7,12.756c0,6.705-5.728,12.169-14.4,20.471Z" transform="translate(315.034 743.99)" fill="#fff"/>
  </g>
</svg>
