<svg xmlns="http://www.w3.org/2000/svg" width="61.108" height="61.952" viewBox="0 0 61.108 61.952">
  <g id="Group_38" data-name="Group 38" transform="translate(-183.446 -732.331)">
    <path id="ic_info_24px" d="M32.554,2A30.778,30.778,0,0,0,2,32.976,30.778,30.778,0,0,0,32.554,63.952,30.778,30.778,0,0,0,63.108,32.976,30.778,30.778,0,0,0,32.554,2Zm3.055,46.464H29.5v.892Zm0-24.781v-6.2h0Z" transform="translate(181.446 730.331)" fill="#707070"/>
    <path id="ic_star_24px" d="M19.1,27.966l10.57,6.343-2.8-11.954,9.339-8.043-12.3-1.037L19.1,2,14.3,13.274,2,14.311l9.339,8.043-2.8,11.954Z" transform="translate(195.037 744.99)" fill="#fff"/>
  </g>
</svg>
