<svg xmlns="http://www.w3.org/2000/svg" width="52.766" height="30.432" viewBox="0 0 52.766 30.432">
  <path id="ic_group_24px" d="M36.977,18.042c3.981,0,7.171-2.913,7.171-6.521S40.958,5,36.977,5s-7.2,2.913-7.2,6.521S33,18.042,36.977,18.042Zm-19.188,0c3.981,0,7.171-2.913,7.171-6.521S21.771,5,17.789,5s-7.2,2.913-7.2,6.521S13.808,18.042,17.789,18.042Zm0,4.347C12.2,22.39,1,24.933,1,30v5.434H34.578V30C34.578,24.933,23.377,22.39,17.789,22.39Zm19.188,0c-.7,0-1.487.043-2.326.109,2.782,1.826,4.725,4.282,4.725,7.5v5.434H53.766V30C53.766,24.933,42.565,22.39,36.977,22.39Z" transform="translate(-1 -5)" fill="#fff"/>
</svg>
