<svg xmlns="http://www.w3.org/2000/svg" width="41.988" height="45.07" viewBox="0 0 41.988 45.07">
  <path id="ic_settings_24px" d="M37.43,25.645a17.623,17.623,0,0,0,.143-2.11,17.624,17.624,0,0,0-.143-2.11l4.323-3.553A1.124,1.124,0,0,0,42,16.493L37.9,9.042a1.007,1.007,0,0,0-1.25-.474l-5.1,2.154a14.813,14.813,0,0,0-3.463-2.11L27.308,2.9a1.016,1.016,0,0,0-1-.9h-8.2a1.016,1.016,0,0,0-1,.9l-.779,5.707a15.577,15.577,0,0,0-3.463,2.11l-5.1-2.154a.978.978,0,0,0-1.25.474l-4.1,7.451a1.1,1.1,0,0,0,.246,1.378l4.323,3.553a17.935,17.935,0,0,0-.143,2.11,17.935,17.935,0,0,0,.143,2.11L2.659,29.2a1.124,1.124,0,0,0-.246,1.378l4.1,7.451a1.007,1.007,0,0,0,1.25.474l5.1-2.154a14.813,14.813,0,0,0,3.463,2.11l.779,5.707a1.016,1.016,0,0,0,1,.9h8.2a1.016,1.016,0,0,0,1-.9l.779-5.707a15.577,15.577,0,0,0,3.463-2.11l5.1,2.154a.978.978,0,0,0,1.25-.474L42,30.577a1.124,1.124,0,0,0-.246-1.378ZM22.206,31.072a7.369,7.369,0,0,1-7.172-7.537A7.369,7.369,0,0,1,22.206,16a7.369,7.369,0,0,1,7.172,7.537A7.369,7.369,0,0,1,22.206,31.072Z" transform="translate(-1.204 -1)" fill="none" stroke="#fff" stroke-width="2"/>
</svg>
